<svg width="5178" height="5088" viewBox="0 0 5178 5088" fill="none" xmlns="http://www.w3.org/2000/svg">
<path d="M2633.51 198.399L5051.51 4964.4L5088.36 5037.02H89.4902L126.334 4964.4L2544.33 198.399L2588.92 110.511L2633.51 198.399Z" fill="black" stroke="white" stroke-width="100"/>
<path d="M2587.92 1780.02L3814.67 5024.02H1361.18L2587.92 1780.02Z" fill="white"/>
<path d="M2512.92 4875.02C2562.92 4875.02 2612.92 4875.02 2662.92 4875.02C2661.67 4826.7 2660.42 4778.39 2659.17 4730.07C2636.67 3860.37 2614.17 2990.67 2591.67 2120.97C2590.42 2072.65 2589.17 2024.34 2587.92 1976.02C2586.67 2024.34 2585.42 2072.65 2584.17 2120.97C2561.67 2990.67 2539.17 3860.37 2516.67 4730.07C2515.42 4778.39 2514.17 4826.7 2512.92 4875.02Z" fill="black"/>
<path d="M2588.92 780.021C3553.02 780.021 4371.97 1382.35 4670.33 2220.41C4748.47 2439.9 4790.92 2675.62 4790.92 2921.02C4790.92 3690.47 4373.43 4365.41 3746.11 4742.9C3409.91 4945.21 3013.5 5062.02 2588.92 5062.02C1372.13 5062.02 386.924 4102.81 386.924 2921.02C386.924 1739.23 1372.13 780.021 2588.92 780.021Z" stroke="black" stroke-width="50"/>
<path d="M2588.42 992.021C3685.1 992.021 4572.92 1856.1 4572.92 2920.52C4572.92 3984.94 3685.1 4849.02 2588.42 4849.02C1491.74 4849.02 603.924 3984.94 603.924 2920.52C603.924 1856.1 1491.74 992.021 2588.42 992.021Z" stroke="#464545" stroke-width="50"/>
<path d="M2588.92 891.021C3745.07 891.021 4678.92 1801.73 4678.92 2921.02C4678.92 4040.31 3745.07 4951.02 2588.92 4951.02C1432.78 4951.02 498.924 4040.31 498.924 2921.02C498.924 1801.73 1432.78 891.021 2588.92 891.021Z" stroke="#373636" stroke-width="140"/>
<path d="M2588.92 290.021L2644.92 1976.02H2532.92L2588.92 290.021Z" fill="white"/>
<rect x="2335.92" y="4025.02" width="670" height="212" fill="white"/>
<rect x="2335.92" y="3317.02" width="670" height="212" fill="white"/>
<rect x="2335.92" y="2603.02" width="501" height="212" fill="white"/>
<path d="M3300.92 3654.32L4227.42 3451.02L4697.42 4377.02L3737.93 4821.02L3300.92 3654.32Z" fill="black"/>
<path d="M1874.46 3654.32L947.962 3451.02L477.962 4377.02L1437.46 4821.02L1874.46 3654.32Z" fill="black"/>
<path d="M2572.93 704.027L2324.93 741.527L1866.43 1645.03L2540.92 1668.02L2572.93 704.027Z" fill="black"/>
<path d="M1874.46 3654.32L947.962 3451.02L477.962 4377.02L1437.46 4821.02L1874.46 3654.32Z" fill="black"/>
<path d="M2604.98 704.027L2852.98 741.527L3311.48 1645.03L2636.98 1668.02L2604.98 704.027Z" fill="black"/>
<path d="M3303.45 3654.32L4229.95 3451.02L4699.95 4377.02L3740.45 4821.02L3303.45 3654.32Z" fill="black"/>
<path d="M2648.59 2022.72C2610.37 1990.49 2572.15 1958.25 2533.92 1926.02C2495.78 1973.19 2457.64 2020.37 2419.49 2067.54C1732.89 2916.64 1046.29 3765.75 359.692 4614.85C321.548 4662.03 283.403 4709.2 245.259 4756.37C285.314 4710.81 325.37 4665.25 365.426 4619.69C1086.43 3799.59 1807.43 2979.5 2528.43 2159.4C2568.48 2113.84 2608.54 2068.28 2648.59 2022.72Z" fill="white"/>
<path d="M2527.25 2022.72C2565.48 1990.49 2603.7 1958.25 2641.92 1926.02C2680.07 1973.19 2718.21 2020.37 2756.36 2067.54C3442.96 2916.64 4129.56 3765.75 4816.16 4614.85C4854.3 4662.03 4892.44 4709.2 4930.59 4756.37C4890.53 4710.81 4850.48 4665.25 4810.42 4619.69C4089.42 3799.59 3368.42 2979.5 2647.42 2159.4C2607.36 2113.84 2567.31 2068.28 2527.25 2022.72Z" fill="white"/>
</svg>
