<svg width="16700" height="6289" viewBox="0 0 16700 6289" fill="none" xmlns="http://www.w3.org/2000/svg">
<mask id="lockTrim" maskUnits="userSpaceOnUse" x="0" y="0" width="16700" height="6289">
<rect x="0" y="0" width="16700" height="6289" fill="white"/>
<rect x="5460" y="2790" width="11240" height="1330" fill="black"/>
</mask>
<g mask="url(#lockTrim)">
<path d="M3272.58 198.399L6287.47 6140.91L6324.32 6213.53H131.655L168.499 6140.91L3183.4 198.399L3227.99 110.51L3272.58 198.399Z" fill="black" stroke="white" stroke-width="100"/>
<path d="M3226.76 2164.87L4756.34 6209.67H1697.18L3226.76 2164.87Z" fill="white"/>
<path d="M3151.77 6023.89C3201.77 6023.89 3251.77 6023.89 3301.77 6023.89C3300.52 5963.64 3299.27 5903.4 3298.02 5843.15C3275.52 4758.76 3253.02 3674.37 3230.52 2589.98C3229.27 2529.74 3228.02 2469.5 3226.77 2409.25C3225.52 2469.5 3224.27 2529.74 3223.02 2589.98C3200.52 3674.37 3178.02 4758.76 3155.52 5843.15C3154.27 5903.4 3153.02 5963.64 3151.77 6023.89Z" fill="black"/>
<path d="M3227.98 911.842C4432.67 911.842 5456.12 1664.49 5829.01 2711.89C5926.67 2986.23 5979.73 3280.83 5979.73 3587.53C5979.73 4549.23 5457.92 5392.72 4674.01 5864.44C4253.87 6117.26 3758.51 6263.22 3227.98 6263.22C1707.58 6263.22 476.238 5064.62 476.237 3587.53C476.237 2110.44 1707.58 911.842 3227.98 911.842Z" stroke="black" stroke-width="50"/>
<path d="M3227.36 1176.18C4598 1176.18 5707.92 2256.16 5707.92 3586.91C5707.92 4917.66 4598 5997.64 3227.36 5997.64C1856.72 5997.64 746.805 4917.66 746.805 3586.91C746.805 2256.16 1856.72 1176.18 3227.36 1176.18Z" stroke="#464545" stroke-width="50"/>
<path d="M3227.98 1039.13C4678.61 1039.13 5851.19 2181.94 5851.19 3587.53C5851.19 4993.13 4678.61 6135.93 3227.98 6135.93C1777.35 6135.93 604.776 4993.13 604.776 3587.53C604.776 2181.94 1777.35 1039.13 3227.98 1039.13Z" stroke="#373636" stroke-width="140"/>
<path d="M3228.01 307.054L3297.84 2409.25H3158.19L3228.01 307.054Z" fill="white"/>
<rect x="2912.56" y="4964.06" width="835.393" height="264.333" fill="white"/>
<rect x="2912.56" y="4081.29" width="835.393" height="264.333" fill="white"/>
<rect x="2912.56" y="3191.03" width="624.675" height="264.333" fill="white"/>
<path d="M4115.78 4501.85L5270.99 4248.37L5857.01 5402.95L4660.65 5956.56L4115.78 4501.85Z" fill="black"/>
<path d="M2337.18 4501.85L1181.97 4248.37L595.95 5402.95L1792.31 5956.56L2337.18 4501.85Z" fill="black"/>
<path d="M3208.07 823.259L2898.85 870.016L2327.17 1996.55L3168.17 2025.22L3208.07 823.259Z" fill="black"/>
<path d="M3248.03 823.259L3557.25 870.016L4128.93 1996.55L3287.93 2025.22L3248.03 823.259Z" fill="black"/>
<path d="M3274.11 2443.61C3235.89 2411.38 3197.66 2379.14 3159.44 2346.91C3111.64 2405.53 3063.85 2464.15 3016.05 2522.76C2155.71 3577.89 1295.38 4633.03 435.041 5688.16C387.244 5746.77 339.448 5805.39 291.651 5864.01C341.359 5807 391.067 5750 440.774 5692.99C1335.51 4666.87 2230.25 3640.75 3124.99 2614.63C3174.69 2557.62 3224.4 2500.61 3274.11 2443.61Z" fill="white"/>
<path d="M3179.43 2443.61C3217.65 2411.38 3255.88 2379.14 3294.1 2346.91C3341.9 2405.53 3389.69 2464.15 3437.49 2522.76C4297.83 3577.89 5158.16 4633.03 6018.5 5688.16C6066.29 5746.77 6114.09 5805.39 6161.89 5864.01C6112.18 5807 6062.47 5750 6012.76 5692.99C5118.03 4666.87 4223.29 3640.75 3328.55 2614.63C3278.84 2557.62 3229.14 2500.61 3179.43 2443.61Z" fill="white"/>
</g>
<path transform="translate(5365 3472) scale(1.25) translate(-5365 -3472)" fill-rule="evenodd" clip-rule="evenodd" d="M5365.36 3847.02L5802.86 3097.02H5927.86L6365.36 3847.02H6255.99L6162.24 3675.15H5568.49L5474.74 3847.02H5365.36ZM5615.36 3597.02H6115.36L5865.36 3159.52L5615.36 3597.02ZM6580.36 3847.02V3097.02H7178.02C7234.66 3097.02 7281.05 3102.39 7317.18 3113.13C7353.64 3123.55 7380.49 3142.27 7397.75 3169.29C7415.32 3195.98 7424.11 3233.9 7424.11 3283.06C7424.11 3327.33 7413.86 3363.95 7393.35 3392.92C7372.84 3421.89 7341.43 3437.84 7299.11 3440.77C7354.45 3446.31 7394.33 3466.16 7418.74 3500.34C7443.16 3534.2 7455.36 3576.84 7455.36 3628.27C7455.36 3672.87 7450.15 3709.49 7439.74 3738.13C7429.65 3766.78 7412.56 3789.08 7388.47 3805.03C7364.38 3820.65 7331.67 3831.56 7290.32 3837.74C7249.31 3843.93 7198.04 3847.02 7136.52 3847.02H6580.36ZM6674.11 3409.52H7111.12C7161.58 3409.52 7202.92 3407.73 7235.15 3404.15C7267.38 3400.57 7291.3 3389.99 7306.93 3372.41C7322.55 3354.83 7330.36 3325.05 7330.36 3283.06C7330.36 3250.18 7325.64 3226.09 7316.2 3210.79C7307.09 3195.49 7291.46 3185.73 7269.33 3181.49C7247.19 3177.26 7216.76 3175.15 7178.02 3175.15H6674.11V3409.52ZM6674.11 3768.9H7136.52C7181.11 3768.9 7217.9 3767.76 7246.87 3765.48C7276.16 3763.2 7299.11 3757.67 7315.71 3748.88C7332.64 3740.09 7344.52 3726.25 7351.36 3707.37C7358.2 3688.17 7361.61 3661.8 7361.61 3628.27C7361.61 3593.77 7355.1 3566.91 7342.08 3547.7C7329.39 3528.5 7311.48 3514.66 7288.37 3506.2C7265.58 3497.74 7239.05 3492.53 7208.78 3490.58C7178.51 3488.62 7145.96 3487.65 7111.12 3487.65H6674.11V3768.9ZM7703.57 3097.02H8205.52C8278.76 3097.02 8337.68 3100.28 8382.28 3106.79C8427.2 3113.3 8461.22 3124.53 8484.33 3140.48C8507.44 3156.43 8523.07 3178.24 8531.2 3205.91C8539.34 3233.58 8543.41 3268.57 8543.41 3310.89V3330.42C8543.41 3369.48 8538.69 3403.17 8529.25 3431.49C8520.14 3459.49 8502.39 3482.28 8476.03 3499.85C8449.66 3517.11 8410.6 3529.31 8358.84 3536.47L8521.93 3847.02H8428.18L8268.51 3543.31C8262 3543.64 8255.16 3543.8 8248 3543.8C8241.16 3543.8 8234 3543.8 8226.52 3543.8H7797.32V3847.02H7703.57V3097.02ZM7797.32 3462.74H8211.87C8267.53 3462.74 8311.31 3460.95 8343.21 3457.37C8375.44 3453.47 8399.04 3446.79 8414.02 3437.35C8429.32 3427.91 8439.08 3414.57 8443.31 3397.31C8447.54 3380.06 8449.66 3357.76 8449.66 3330.42V3310.89C8449.66 3279.96 8446.73 3255.55 8440.87 3237.65C8435.01 3219.74 8423.29 3206.56 8405.71 3198.1C8388.14 3189.63 8361.93 3184.26 8327.1 3181.98C8292.27 3179.38 8245.72 3178.08 8187.45 3178.08H7797.32V3462.74ZM9312.68 2885.37V4081.4H9169.21V2885.37H9312.68ZM9890.64 3847.02V3097.02H10030.3L10483.9 3708.84L10930.7 3097.02H11070.3V3847.02H10976.6V3181.98L10528.8 3797.7H10443.9L9984.39 3181.98V3847.02H9890.64ZM11681.3 3862.65C11608.1 3862.65 11547.9 3857.6 11500.7 3847.51C11453.5 3837.74 11416.5 3819.51 11389.8 3792.82C11363.5 3766.13 11344.9 3727.72 11334.2 3677.59C11323.7 3627.46 11318.5 3562.19 11318.5 3481.79V3462.26C11318.5 3395.85 11321.8 3340.19 11328.3 3295.26C11334.8 3250.02 11346 3213.23 11362 3184.91C11377.9 3156.59 11399.6 3134.94 11426.9 3119.97C11454.6 3105 11489.3 3094.91 11530.9 3089.7C11572.6 3084.16 11622.7 3081.4 11681.3 3081.4H11878.1C11936.7 3081.4 11986.8 3084.16 12028.5 3089.7C12070.2 3094.91 12104.7 3105 12132 3119.97C12159.7 3134.94 12181.5 3156.59 12197.4 3184.91C12213.4 3213.23 12224.6 3250.02 12231.1 3295.26C12237.6 3340.19 12240.9 3395.85 12240.9 3462.26V3481.79C12240.9 3562.19 12235.5 3627.46 12224.8 3677.59C12214.4 3727.72 12195.8 3766.13 12169.1 3792.82C12142.8 3819.51 12106 3837.74 12058.8 3847.51C12011.6 3857.6 11951.3 3862.65 11878.1 3862.65H11681.3ZM11681.3 3781.59H11878.1C11924.7 3781.59 11963.9 3779.96 11995.8 3776.71C12027.7 3773.45 12053.6 3766.45 12073.4 3755.71C12093.6 3744.97 12108.9 3728.69 12119.3 3706.88C12130.1 3685.07 12137.4 3655.94 12141.3 3619.48C12145.2 3583.02 12147.1 3537.13 12147.1 3481.79V3462.26C12147.1 3404.96 12145.2 3357.76 12141.3 3320.65C12137.4 3283.54 12130.1 3254.25 12119.3 3232.76C12108.9 3211.28 12093.6 3195.65 12073.4 3185.89C12053.6 3175.8 12027.7 3169.45 11995.8 3166.85C11963.9 3163.92 11924.7 3162.45 11878.1 3162.45H11681.3C11634.8 3162.45 11595.6 3163.92 11563.7 3166.85C11531.8 3169.45 11505.7 3175.8 11485.5 3185.89C11465.7 3195.65 11450.4 3211.28 11439.6 3232.76C11429.2 3254.25 11422.1 3283.54 11418.1 3320.65C11414.2 3357.76 11412.3 3404.96 11412.3 3462.26V3481.79C11412.3 3537.13 11414.2 3583.02 11418.1 3619.48C11422.1 3655.94 11429.2 3685.07 11439.6 3706.88C11450.4 3728.69 11465.7 3744.97 11485.5 3755.71C11505.7 3766.45 11531.8 3773.45 11563.7 3776.71C11595.6 3779.96 11634.8 3781.59 11681.3 3781.59ZM12831.4 3847.02L12427.1 3097.02H12534.5L12893.9 3780.61L13253.3 3097.02H13359.2L12956.4 3847.02H12831.4ZM13577.6 3847.02V3097.02H14314V3175.15H13671.4V3425.15H14287.1V3503.27H13671.4V3768.9H14327.6V3847.02H13577.6Z" fill="black"/>
</svg>
